<svg width="110" height="113" viewBox="0 0 110 113" fill="none" xmlns="http://www.w3.org/2000/svg">
<path d="M54.9512 112.715L22.3944 103.662L15.139 22.1514H94.8609L87.5981 103.649L54.9512 112.715Z" fill="#264DE4"/>
<path d="M81.3803 98.4591L87.5866 28.8154H55V105.785L81.3803 98.4591Z" fill="#2965F1"/>
<path d="M31.7716 59.0469L32.666 69.0438H55.0001V59.0469H31.7716ZM29.9741 38.813L30.8813 48.8099H55.0001V38.813H29.9741ZM55.0001 85.0099L54.9563 85.0215L43.8413 82.0153L43.1307 74.0424H33.1119L34.5101 89.739L54.9541 95.4235L55.0001 95.411V85.0099Z" fill="#EBEBEB"/>
<path d="M33.9012 0H45.9887V5.0634H38.9562V10.1268H45.9894V15.1899H33.9012V0ZM48.4066 0H60.4944V4.40293H53.4616V5.28345H60.4944V15.4103H48.4069V10.7866H55.4397V9.90612H48.4062L48.4066 0ZM62.9122 0H75V4.40293H67.9672V5.28345H75V15.4103H62.9122V10.7866H69.945V9.90612H62.9125L62.9122 0Z" fill="black"/>
<path d="M78.1647 59.0469L79.9663 38.813H54.9656V48.8099H69.0288L68.1206 59.0469H54.9656V69.0438H67.2553L66.0966 82.009L54.9653 85.0184V95.4188L75.4256 89.7391L75.5756 88.05L77.9213 61.7313L78.1647 59.0469Z" fill="white"/>
</svg>
