<svg width="64" height="63" viewBox="0 0 64 63" fill="none" xmlns="http://www.w3.org/2000/svg">
<rect x="0.5" width="63" height="63" rx="31.5" fill="white"/>
<g clip-path="url(#clip0_288_836)">
<path d="M27.9516 22.7853C25.2826 24.0555 23.2965 26.5464 22.6763 29.5384C23.1014 29.5454 27.0248 29.5595 31.4847 28.3599C29.9028 25.5232 28.2025 23.1311 27.9516 22.7853ZM29.7704 22.1432C30.0352 22.5031 31.7634 24.8882 33.3244 27.7884C36.7112 26.497 38.1398 24.5494 38.314 24.3025C35.9725 22.1997 32.7878 21.4023 29.7704 22.1432ZM35.7216 40.3912C35.5823 39.5444 35.0248 36.5948 33.6868 33.0807C29.8471 34.4073 27.1502 37.0605 26.1537 39.121C28.976 41.3509 32.6554 41.7107 35.7216 40.3912ZM32.2652 29.8488C27.5126 31.2884 22.8993 31.2319 22.4812 31.2178V31.5142C22.4812 33.991 23.408 36.249 24.9272 37.9638C26.4742 35.2894 29.6032 32.4668 33.0457 31.4859C32.8087 30.9355 32.5439 30.3922 32.2722 29.8488H32.2652ZM37.3175 39.5091C39.4568 38.0484 40.976 35.7269 41.4011 33.0454C41.0805 32.9396 38.4533 32.1492 35.4708 32.6361C36.7182 36.1009 37.2199 38.9234 37.3175 39.5091ZM34.8924 31.1119C38.0631 30.7097 41.2129 31.3519 41.5265 31.4224C41.5056 29.1432 40.7042 27.0545 39.3732 25.4174C39.1711 25.6926 37.5753 27.7601 34.0561 29.2208C34.3906 29.9124 34.6345 30.4769 34.8924 31.1119ZM43.1502 15.6936H20.8506C18.3906 15.6936 16.3906 17.7188 16.3906 20.2097V42.7904C16.3906 45.2813 18.3906 47.3065 20.8506 47.3065H43.1502C45.6101 47.3065 47.6101 45.2813 47.6101 42.7904V20.2097C47.6101 17.7188 45.6101 15.6936 43.1502 15.6936ZM32.0004 42.7904C29.0433 42.7904 26.2073 41.6009 24.1163 39.4835C22.0253 37.3662 20.8506 34.4944 20.8506 31.5001C20.8506 28.5057 22.0253 25.6339 24.1163 23.5166C26.2073 21.3992 29.0433 20.2097 32.0004 20.2097C34.9575 20.2097 37.7935 21.3992 39.8845 23.5166C41.9755 25.6339 43.1502 28.5057 43.1502 31.5001C43.1502 34.4944 41.9755 37.3662 39.8845 39.4835C37.7935 41.6009 34.9575 42.7904 32.0004 42.7904Z" fill="#FD6F00"/>
</g>
<defs>
<clipPath id="clip0_288_836">
<rect width="31.2195" height="32" fill="white" transform="translate(16.3906 15.5)"/>
</clipPath>
</defs>
</svg>
