<svg width="63" height="63" viewBox="0 0 63 63" fill="none" xmlns="http://www.w3.org/2000/svg">
<rect width="63" height="63" rx="31.5" fill="#C5896F"/>
<g clip-path="url(#clip0_578_1411)">
<path d="M27.4512 22.7851C24.7822 24.0553 22.7962 26.5462 22.176 29.5381C22.6011 29.5452 26.5244 29.5593 30.9843 28.3597C29.4025 25.523 27.7021 23.1309 27.4512 22.7851ZM29.2701 22.143C29.5349 22.5028 31.2631 24.8879 32.8241 27.7881C36.2108 26.4968 37.6394 24.5492 37.8136 24.3022C35.4721 22.1994 32.2875 21.402 29.2701 22.143ZM35.2213 40.3909C35.0819 39.5442 34.5244 36.5946 33.1864 33.0805C29.3467 34.4071 26.6498 37.0603 25.6533 39.1208C28.4756 41.3506 32.1551 41.7105 35.2213 40.3909ZM31.7648 29.8486C27.0122 31.2881 22.399 31.2317 21.9809 31.2176V31.5139C21.9809 33.9907 22.9077 36.2488 24.4268 37.9635C25.9739 35.2891 29.1028 32.4665 32.5453 31.4857C32.3084 30.9353 32.0436 30.3919 31.7718 29.8486H31.7648ZM36.8171 39.5089C38.9565 38.0482 40.4756 35.7266 40.9007 33.0452C40.5802 32.9393 37.953 32.149 34.9704 32.6359C36.2178 36.1006 36.7195 38.9232 36.8171 39.5089ZM34.392 31.1117C37.5627 30.7095 40.7126 31.3516 41.0261 31.4222C41.0052 29.143 40.2038 27.0542 38.8728 25.4171C38.6707 25.6924 37.0749 27.7599 33.5558 29.2206C33.8903 29.9121 34.1342 30.4766 34.392 31.1117ZM42.6498 15.6934H20.3502C17.8903 15.6934 15.8903 17.7186 15.8903 20.2095V42.7901C15.8903 45.2811 17.8903 47.3063 20.3502 47.3063H42.6498C45.1098 47.3063 47.1098 45.2811 47.1098 42.7901V20.2095C47.1098 17.7186 45.1098 15.6934 42.6498 15.6934ZM31.5 42.7901C28.5429 42.7901 25.7069 41.6006 23.6159 39.4833C21.5249 37.3659 20.3502 34.4942 20.3502 31.4998C20.3502 28.5054 21.5249 25.6337 23.6159 23.5163C25.7069 21.399 28.5429 20.2095 31.5 20.2095C34.4571 20.2095 37.2931 21.399 39.3841 23.5163C41.4751 25.6337 42.6498 28.5054 42.6498 31.4998C42.6498 34.4942 41.4751 37.3659 39.3841 39.4833C37.2931 41.6006 34.4571 42.7901 31.5 42.7901Z" fill="white"/>
</g>
<defs>
<clipPath id="clip0_578_1411">
<rect width="31.2195" height="32" fill="white" transform="translate(15.8903 15.5)"/>
</clipPath>
</defs>
</svg>
