<svg width="56" height="56" viewBox="0 0 56 56" fill="none" xmlns="http://www.w3.org/2000/svg">
<g clip-path="url(#clip0_590_1597)">
<path d="M42.875 0H13.125C5.87626 0 0 5.87626 0 13.125V42.875C0 50.1237 5.87626 56 13.125 56H42.875C50.1237 56 56 50.1237 56 42.875V13.125C56 5.87626 50.1237 0 42.875 0Z" fill="#242938"/>
<mask id="mask0_590_1597" style="mask-type:luminance" maskUnits="userSpaceOnUse" x="13" y="6" width="30" height="44">
<path d="M13.3438 6.125H42.5162V49.875H13.3438V6.125Z" fill="white"/>
</mask>
<g mask="url(#mask0_590_1597)">
<path d="M20.6384 49.8754C24.6634 49.8754 27.93 46.6088 27.93 42.5838V35.292H20.6384C16.6134 35.292 13.3466 38.5588 13.3466 42.5838C13.3466 46.6088 16.6134 49.8754 20.6384 49.8754Z" fill="#0ACF83"/>
<path d="M13.3466 27.9996C13.3466 23.9746 16.6134 20.708 20.6384 20.708H27.93V35.2912H20.6384C16.6134 35.2912 13.3466 32.0246 13.3466 27.9996Z" fill="#A259FF"/>
<path d="M13.3463 13.4166C13.3463 9.39159 16.6131 6.125 20.6381 6.125H27.9297V20.7084H20.6381C16.6131 20.7084 13.3463 17.4416 13.3463 13.4166Z" fill="#F24E1E"/>
<path d="M27.93 6.125H35.2216C39.2466 6.125 42.5134 9.39159 42.5134 13.4166C42.5134 17.4416 39.2466 20.7084 35.2216 20.7084H27.93V6.125Z" fill="#FF7262"/>
<path d="M42.5134 27.9996C42.5134 32.0246 39.2466 35.2912 35.2216 35.2912C31.1966 35.2912 27.93 32.0246 27.93 27.9996C27.93 23.9746 31.1966 20.708 35.2216 20.708C39.2466 20.708 42.5134 23.9746 42.5134 27.9996Z" fill="#1ABCFE"/>
</g>
</g>
<defs>
<clipPath id="clip0_590_1597">
<rect width="56" height="56" fill="white"/>
</clipPath>
</defs>
</svg>
