<svg width="64" height="63" viewBox="0 0 64 63" fill="none" xmlns="http://www.w3.org/2000/svg">
<rect x="0.5" width="63" height="63" rx="31.5" fill="white"/>
<g clip-path="url(#clip0_288_835)">
<path d="M47.6101 20.2624C47.6101 17.7815 45.6101 15.7644 43.1502 15.7644H20.8506C18.3906 15.7644 16.3906 17.7815 16.3906 20.2624V42.7522C16.3906 45.2331 18.3906 47.2501 20.8506 47.2501H43.1502C45.6101 47.2501 47.6101 45.2331 47.6101 42.7522V20.2624ZM34.9133 42.1689C34.9133 42.0423 34.9133 41.7472 34.9202 41.3536C34.9272 40.5524 34.9272 39.3295 34.9272 38.2823C34.9272 37.186 34.5648 36.4902 34.1398 36.1247C36.7182 35.8366 39.4359 35.4781 39.4359 30.9872C39.4359 29.7081 38.983 29.0685 38.2443 28.2463C38.3628 27.944 38.76 26.7001 38.1258 25.0836C37.1572 24.7814 34.9411 26.3416 34.9411 26.3416C34.0213 26.0816 33.0248 25.9481 32.0422 25.9481C31.0596 25.9481 30.0631 26.0816 29.1432 26.3416C29.1432 26.3416 26.9272 24.7814 25.9586 25.0836C25.3244 26.693 25.7147 27.937 25.8401 28.2463C25.1014 29.0685 24.753 29.7081 24.753 30.9872C24.753 35.457 27.3523 35.8366 29.9307 36.1247C29.5962 36.4269 29.2965 36.947 29.192 37.692C28.53 37.9942 26.8366 38.5143 25.8262 36.7151C25.192 35.6046 24.0492 35.5133 24.0492 35.5133C22.9202 35.4992 23.9725 36.2301 23.9725 36.2301C24.7251 36.5815 25.2547 37.9309 25.2547 37.9309C25.9307 40.0183 29.1641 39.3155 29.1641 39.3155C29.1641 39.948 29.1711 40.8405 29.1711 41.466C29.1711 41.8034 29.1781 42.0705 29.1781 42.1689C29.1781 42.4711 28.969 42.8365 28.3767 42.7311C23.7774 41.1779 20.5579 36.7643 20.5579 31.6057C20.5579 25.1539 25.4499 20.2553 31.8471 20.2553C38.2443 20.2553 43.429 25.1539 43.429 31.6057C43.4359 36.7643 40.314 41.1849 35.7147 42.7311C35.1293 42.8365 34.9133 42.4711 34.9133 42.1689ZM28.6067 38.3175C28.5927 38.212 28.6833 38.1207 28.8157 38.0926C28.9481 38.0785 29.0736 38.1347 29.0875 38.2261C29.1084 38.3175 29.0178 38.4088 28.8784 38.4369C28.746 38.4651 28.6206 38.4088 28.6067 38.3175ZM27.9725 38.5424C27.8192 38.5564 27.7147 38.4791 27.7147 38.3737C27.7147 38.2823 27.8192 38.205 27.9586 38.205C28.091 38.191 28.2164 38.2683 28.2164 38.3737C28.2164 38.4651 28.1119 38.5424 27.9725 38.5424ZM26.976 38.3878C26.8436 38.3596 26.753 38.2542 26.7809 38.1629C26.8087 38.0715 26.9481 38.0293 27.0666 38.0574C27.206 38.0996 27.2965 38.205 27.2617 38.2964C27.2338 38.3878 27.0945 38.4299 26.976 38.3878ZM26.1049 37.8747C26.0004 37.7833 25.9725 37.6498 26.0422 37.5866C26.1049 37.5092 26.2373 37.5233 26.3418 37.6287C26.4324 37.7201 26.4673 37.8606 26.4046 37.9169C26.3418 37.9942 26.2094 37.9801 26.1049 37.8747ZM25.5126 37.1719C25.4359 37.0665 25.4359 36.947 25.5126 36.8978C25.5892 36.8346 25.7077 36.8837 25.7704 36.9892C25.8471 37.0946 25.8471 37.2211 25.7704 37.2773C25.7077 37.3195 25.5892 37.2773 25.5126 37.1719ZM25.0736 36.5534C24.9969 36.4621 24.983 36.3566 25.0457 36.3074C25.1084 36.2442 25.2129 36.2793 25.2896 36.3496C25.3662 36.441 25.3802 36.5464 25.3175 36.5956C25.2547 36.6588 25.1502 36.6237 25.0736 36.5534ZM24.6554 36.1036C24.5648 36.0615 24.523 35.9842 24.5509 35.9209C24.5788 35.8787 24.6554 35.8576 24.746 35.8928C24.8366 35.942 24.8784 36.0193 24.8506 36.0755C24.8227 36.1388 24.7321 36.1528 24.6554 36.1036Z" fill="#FD6F00"/>
</g>
<defs>
<clipPath id="clip0_288_835">
<rect width="31.2195" height="32" fill="white" transform="translate(16.3906 15.5)"/>
</clipPath>
</defs>
</svg>
