<svg width="63" height="63" viewBox="0 0 63 63" fill="none" xmlns="http://www.w3.org/2000/svg">
<rect width="63" height="63" rx="31.5" fill="#C5896F"/>
<g clip-path="url(#clip0_578_1408)">
<path d="M47.1098 20.2621C47.1098 17.7812 45.1098 15.7642 42.6498 15.7642H20.3502C17.8903 15.7642 15.8903 17.7812 15.8903 20.2621V42.7519C15.8903 45.2328 17.8903 47.2499 20.3502 47.2499H42.6498C45.1098 47.2499 47.1098 45.2328 47.1098 42.7519V20.2621ZM34.4129 42.1686C34.4129 42.0421 34.4129 41.7469 34.4199 41.3534C34.4268 40.5522 34.4268 39.3293 34.4268 38.2821C34.4268 37.1857 34.0645 36.4899 33.6394 36.1245C36.2178 35.8363 38.9356 35.4779 38.9356 30.987C38.9356 29.7078 38.4826 29.0683 37.7439 28.246C37.8624 27.9438 38.2596 26.6998 37.6255 25.0834C36.6568 24.7812 34.4408 26.3414 34.4408 26.3414C33.5209 26.0814 32.5244 25.9478 31.5418 25.9478C30.5592 25.9478 29.5627 26.0814 28.6429 26.3414C28.6429 26.3414 26.4268 24.7812 25.4582 25.0834C24.8241 26.6928 25.2143 27.9368 25.3397 28.246C24.6011 29.0683 24.2526 29.7078 24.2526 30.987C24.2526 35.4568 26.8519 35.8363 29.4303 36.1245C29.0958 36.4267 28.7962 36.9468 28.6917 37.6917C28.0296 37.9939 26.3363 38.514 25.3258 36.7148C24.6917 35.6044 23.5488 35.513 23.5488 35.513C22.4199 35.499 23.4721 36.2299 23.4721 36.2299C24.2248 36.5813 24.7544 37.9307 24.7544 37.9307C25.4303 40.018 28.6638 39.3152 28.6638 39.3152C28.6638 39.9477 28.6707 40.8403 28.6707 41.4658C28.6707 41.8031 28.6777 42.0702 28.6777 42.1686C28.6777 42.4708 28.4687 42.8363 27.8763 42.7309C23.277 41.1777 20.0575 36.764 20.0575 31.6054C20.0575 25.1537 24.9495 20.2551 31.3467 20.2551C37.7439 20.2551 42.9286 25.1537 42.9286 31.6054C42.9356 36.764 39.8136 41.1847 35.2143 42.7309C34.6289 42.8363 34.4129 42.4708 34.4129 42.1686ZM28.1063 38.3172C28.0923 38.2118 28.1829 38.1204 28.3153 38.0923C28.4478 38.0783 28.5732 38.1345 28.5871 38.2259C28.608 38.3172 28.5174 38.4086 28.3781 38.4367C28.2457 38.4648 28.1202 38.4086 28.1063 38.3172ZM27.4721 38.5421C27.3188 38.5562 27.2143 38.4789 27.2143 38.3735C27.2143 38.2821 27.3188 38.2048 27.4582 38.2048C27.5906 38.1907 27.716 38.268 27.716 38.3735C27.716 38.4648 27.6115 38.5421 27.4721 38.5421ZM26.4756 38.3875C26.3432 38.3594 26.2526 38.254 26.2805 38.1626C26.3084 38.0712 26.4478 38.0291 26.5662 38.0572C26.7056 38.0994 26.7962 38.2048 26.7613 38.2961C26.7335 38.3875 26.5941 38.4297 26.4756 38.3875ZM25.6045 37.8745C25.5 37.7831 25.4721 37.6496 25.5418 37.5863C25.6045 37.509 25.7369 37.5231 25.8415 37.6285C25.9321 37.7198 25.9669 37.8604 25.9042 37.9166C25.8415 37.9939 25.7091 37.9799 25.6045 37.8745ZM25.0122 37.1717C24.9356 37.0662 24.9356 36.9468 25.0122 36.8976C25.0889 36.8343 25.2073 36.8835 25.2701 36.9889C25.3467 37.0943 25.3467 37.2208 25.2701 37.2771C25.2073 37.3192 25.0889 37.2771 25.0122 37.1717ZM24.5732 36.5532C24.4965 36.4618 24.4826 36.3564 24.5453 36.3072C24.608 36.2439 24.7126 36.2791 24.7892 36.3494C24.8659 36.4407 24.8798 36.5462 24.8171 36.5954C24.7544 36.6586 24.6498 36.6235 24.5732 36.5532ZM24.1551 36.1034C24.0645 36.0612 24.0227 35.9839 24.0505 35.9207C24.0784 35.8785 24.1551 35.8574 24.2457 35.8925C24.3363 35.9417 24.3781 36.019 24.3502 36.0753C24.3223 36.1385 24.2317 36.1526 24.1551 36.1034Z" fill="white"/>
</g>
<defs>
<clipPath id="clip0_578_1408">
<rect width="31.2195" height="32" fill="white" transform="translate(15.8903 15.5)"/>
</clipPath>
</defs>
</svg>
