<svg width="108" height="109" viewBox="0 0 108 109" fill="none" xmlns="http://www.w3.org/2000/svg">
<path d="M23.5019 98.6741L16.7156 22.5586H91.2845L84.4915 98.6623L53.9545 107.128L23.5019 98.6741Z" fill="#E44D26"/>
<path d="M54 100.656L78.6746 93.8151L84.4805 28.7822H54V100.656Z" fill="#F16529"/>
<path d="M54 57.013H41.6466L40.7944 47.4524H54V38.1172H30.5918L30.8145 40.6223L33.1095 66.3474H54V57.013ZM54 81.2564L53.9586 81.2674L43.5628 78.4594L42.8979 71.015H33.5264L34.8342 85.6726L53.9569 90.9815L54 90.9688V81.2564Z" fill="#EBEBEB"/>
<path d="M23.6537 1.87305H28.3972V6.56092H32.7375V1.87305H37.4819V16.0666H32.7375V11.3138H28.3981V16.0666H23.6537V1.87305ZM43.7198 6.58033H39.5432V1.87305H52.6424V6.58033H48.4642V16.0666H43.7198V6.58033ZM54.7214 1.87305H59.6675L62.7109 6.86045L65.7509 1.87305H70.6995V16.0666H65.9737V9.03142L62.7109 14.0779H62.6282L59.3629 9.03142V16.0666H54.7206V1.87305H54.7214ZM73.0612 1.87305H77.8064V11.3754H84.4779V16.0675H73.0612V1.87305Z" fill="black"/>
<path d="M53.9679 57.013V66.3474H65.4631L64.3798 78.4543L53.9679 81.2649V90.9764L73.1058 85.6726L73.2459 84.0948L75.4396 59.5189L75.6675 57.013H73.1514H53.9679ZM53.9679 38.1172V47.4524H76.5171L76.7036 45.354L77.1297 40.6223L77.3533 38.1172H53.9679Z" fill="white"/>
</svg>
