<svg width="56" height="56" viewBox="0 0 56 56" fill="none" xmlns="http://www.w3.org/2000/svg">
<g clip-path="url(#clip0_590_1613)">
<path d="M42.875 0H13.125C5.87626 0 0 5.87626 0 13.125V42.875C0 50.1237 5.87626 56 13.125 56H42.875C50.1237 56 56 50.1237 56 42.875V13.125C56 5.87626 50.1237 0 42.875 0Z" fill="#330000"/>
<path d="M27.0666 33.3232H18.3866L16.6132 38.8066C16.5666 39.0166 16.38 39.1566 16.17 39.1332H11.7832C11.5266 39.1332 11.4566 38.9932 11.5266 38.7132L19.04 17.0832C19.11 16.85 19.18 16.5932 19.2732 16.3132C19.3666 15.8232 19.4132 15.31 19.4132 14.7966C19.39 14.68 19.4832 14.5632 19.6 14.54H25.6432C25.83 14.54 25.9232 14.61 25.9466 14.7266L34.4632 38.76C34.5332 39.0166 34.4632 39.1332 34.23 39.1332H29.3532C29.19 39.1566 29.0266 39.04 28.98 38.8766L27.0666 33.3232ZM19.74 28.5866H25.6666C25.5266 28.0966 25.34 27.5132 25.13 26.9066C24.92 26.2766 24.71 25.6 24.5 24.9C24.2666 24.1766 24.0566 23.4766 23.8232 22.7532C23.59 22.03 23.38 21.3532 23.1932 20.6766C23.0066 20.0234 22.8432 19.4166 22.68 18.8566H22.6332C22.4232 19.86 22.1666 20.8634 21.84 21.8666C21.49 22.9866 21.14 24.1532 20.7666 25.32C20.4653 26.4213 20.1229 27.5109 19.74 28.5866ZM39.6666 18.6232C38.8966 18.6466 38.15 18.3432 37.59 17.8066C37.0534 17.2232 36.7734 16.4532 36.7966 15.66C36.7734 14.8666 37.0766 14.12 37.6366 13.5832C38.1966 13.0464 38.9434 12.7666 39.7134 12.7666C40.6234 12.7666 41.3234 13.0466 41.8366 13.5832C42.3538 14.1489 42.63 14.8939 42.6066 15.66C42.63 16.4532 42.35 17.2232 41.79 17.8066C41.2534 18.3666 40.46 18.67 39.6666 18.6232ZM37.0534 38.8766V20.91C37.0534 20.6766 37.1466 20.5832 37.3566 20.5832H41.9766C42.1866 20.5832 42.28 20.7 42.28 20.91V38.8766C42.28 39.1332 42.1866 39.25 41.9766 39.25H37.4034C37.17 39.25 37.0534 39.11 37.0534 38.8766Z" fill="#FF9A00"/>
</g>
<defs>
<clipPath id="clip0_590_1613">
<rect width="56" height="56" fill="white"/>
</clipPath>
</defs>
</svg>
