<svg width="63" height="63" viewBox="0 0 63 63" fill="none" xmlns="http://www.w3.org/2000/svg">
<rect width="63" height="63" rx="31.5" fill="#C5896F"/>
<g clip-path="url(#clip0_578_1403)">
<path fill-rule="evenodd" clip-rule="evenodd" d="M42.1667 15.5C43.5812 15.5 44.9377 16.0619 45.9379 17.0621C46.9381 18.0623 47.5 19.4188 47.5 20.8333V42.1667C47.5 43.5812 46.9381 44.9377 45.9379 45.9379C44.9377 46.9381 43.5812 47.5 42.1667 47.5H20.8333C19.4188 47.5 18.0623 46.9381 17.0621 45.9379C16.0619 44.9377 15.5 43.5812 15.5 42.1667V20.8333C15.5 19.4188 16.0619 18.0623 17.0621 17.0621C18.0623 16.0619 19.4188 15.5 20.8333 15.5H42.1667ZM24.3889 27.9444C23.9174 27.9444 23.4652 28.1317 23.1318 28.4651C22.7984 28.7985 22.6111 29.2507 22.6111 29.7222V38.6111C22.6111 39.0826 22.7984 39.5348 23.1318 39.8682C23.4652 40.2016 23.9174 40.3889 24.3889 40.3889C24.8604 40.3889 25.3126 40.2016 25.646 39.8682C25.9794 39.5348 26.1667 39.0826 26.1667 38.6111V29.7222C26.1667 29.2507 25.9794 28.7985 25.646 28.4651C25.3126 28.1317 24.8604 27.9444 24.3889 27.9444ZM29.7222 26.1667C29.2507 26.1667 28.7985 26.354 28.4651 26.6874C28.1317 27.0208 27.9444 27.4729 27.9444 27.9444V38.6111C27.9444 39.0826 28.1317 39.5348 28.4651 39.8682C28.7985 40.2016 29.2507 40.3889 29.7222 40.3889C30.1937 40.3889 30.6459 40.2016 30.9793 39.8682C31.3127 39.5348 31.5 39.0826 31.5 38.6111V32.1044C32.0422 31.4929 32.9578 30.7747 33.9764 30.3391C34.5684 30.0867 35.4591 29.9836 36.0778 30.1791C36.283 30.2312 36.4658 30.3485 36.5987 30.5133C36.6911 30.6378 36.8333 30.9151 36.8333 31.5V38.6111C36.8333 39.0826 37.0206 39.5348 37.354 39.8682C37.6874 40.2016 38.1396 40.3889 38.6111 40.3889C39.0826 40.3889 39.5348 40.2016 39.8682 39.8682C40.2016 39.5348 40.3889 39.0826 40.3889 38.6111V31.5C40.3889 30.3089 40.0867 29.2493 39.4573 28.3996C38.8782 27.629 38.0677 27.064 37.1444 26.7871C35.5409 26.284 33.7649 26.5631 32.5791 27.0716C32.1995 27.2348 31.8297 27.42 31.4716 27.6262C31.397 27.2166 31.1811 26.8461 30.8614 26.5794C30.5417 26.3127 30.1386 26.1666 29.7222 26.1667ZM24.3889 22.6111C23.9174 22.6111 23.4652 22.7984 23.1318 23.1318C22.7984 23.4652 22.6111 23.9174 22.6111 24.3889C22.6111 24.8604 22.7984 25.3126 23.1318 25.646C23.4652 25.9794 23.9174 26.1667 24.3889 26.1667C24.8604 26.1667 25.3126 25.9794 25.646 25.646C25.9794 25.3126 26.1667 24.8604 26.1667 24.3889C26.1667 23.9174 25.9794 23.4652 25.646 23.1318C25.3126 22.7984 24.8604 22.6111 24.3889 22.6111Z" fill="white"/>
</g>
<defs>
<clipPath id="clip0_578_1403">
<rect width="32" height="32" fill="white" transform="translate(15.5 15.5)"/>
</clipPath>
</defs>
</svg>
