<svg width="64" height="63" viewBox="0 0 64 63" fill="none" xmlns="http://www.w3.org/2000/svg">
<rect x="0.5" width="63" height="63" rx="31.5" fill="white"/>
<g clip-path="url(#clip0_288_832)">
<path fill-rule="evenodd" clip-rule="evenodd" d="M42.6667 15.5C44.0812 15.5 45.4377 16.0619 46.4379 17.0621C47.4381 18.0623 48 19.4188 48 20.8333V42.1667C48 43.5812 47.4381 44.9377 46.4379 45.9379C45.4377 46.9381 44.0812 47.5 42.6667 47.5H21.3333C19.9188 47.5 18.5623 46.9381 17.5621 45.9379C16.5619 44.9377 16 43.5812 16 42.1667V20.8333C16 19.4188 16.5619 18.0623 17.5621 17.0621C18.5623 16.0619 19.9188 15.5 21.3333 15.5H42.6667ZM24.8889 27.9444C24.4174 27.9444 23.9652 28.1317 23.6318 28.4651C23.2984 28.7985 23.1111 29.2507 23.1111 29.7222V38.6111C23.1111 39.0826 23.2984 39.5348 23.6318 39.8682C23.9652 40.2016 24.4174 40.3889 24.8889 40.3889C25.3604 40.3889 25.8126 40.2016 26.146 39.8682C26.4794 39.5348 26.6667 39.0826 26.6667 38.6111V29.7222C26.6667 29.2507 26.4794 28.7985 26.146 28.4651C25.8126 28.1317 25.3604 27.9444 24.8889 27.9444ZM30.2222 26.1667C29.7507 26.1667 29.2985 26.354 28.9651 26.6874C28.6317 27.0208 28.4444 27.4729 28.4444 27.9444V38.6111C28.4444 39.0826 28.6317 39.5348 28.9651 39.8682C29.2985 40.2016 29.7507 40.3889 30.2222 40.3889C30.6937 40.3889 31.1459 40.2016 31.4793 39.8682C31.8127 39.5348 32 39.0826 32 38.6111V32.1044C32.5422 31.4929 33.4578 30.7747 34.4764 30.3391C35.0684 30.0867 35.9591 29.9836 36.5778 30.1791C36.783 30.2312 36.9658 30.3485 37.0987 30.5133C37.1911 30.6378 37.3333 30.9151 37.3333 31.5V38.6111C37.3333 39.0826 37.5206 39.5348 37.854 39.8682C38.1874 40.2016 38.6396 40.3889 39.1111 40.3889C39.5826 40.3889 40.0348 40.2016 40.3682 39.8682C40.7016 39.5348 40.8889 39.0826 40.8889 38.6111V31.5C40.8889 30.3089 40.5867 29.2493 39.9573 28.3996C39.3782 27.629 38.5677 27.064 37.6444 26.7871C36.0409 26.284 34.2649 26.5631 33.0791 27.0716C32.6995 27.2348 32.3297 27.42 31.9716 27.6262C31.897 27.2166 31.6811 26.8461 31.3614 26.5794C31.0417 26.3127 30.6386 26.1666 30.2222 26.1667ZM24.8889 22.6111C24.4174 22.6111 23.9652 22.7984 23.6318 23.1318C23.2984 23.4652 23.1111 23.9174 23.1111 24.3889C23.1111 24.8604 23.2984 25.3126 23.6318 25.646C23.9652 25.9794 24.4174 26.1667 24.8889 26.1667C25.3604 26.1667 25.8126 25.9794 26.146 25.646C26.4794 25.3126 26.6667 24.8604 26.6667 24.3889C26.6667 23.9174 26.4794 23.4652 26.146 23.1318C25.8126 22.7984 25.3604 22.6111 24.8889 22.6111Z" fill="#FD6F00"/>
</g>
<defs>
<clipPath id="clip0_288_832">
<rect width="32" height="32" fill="white" transform="translate(16 15.5)"/>
</clipPath>
</defs>
</svg>
