<svg width="180" height="44" viewBox="0 0 180 44" fill="none" xmlns="http://www.w3.org/2000/svg">
<g clip-path="url(#clip0_578_1428)">
<path d="M20.0522 0.5H36V26.4862C36 35.3129 28.8537 42.4785 20.0522 42.4785V0.5Z" fill="#6C3205"/>
<path d="M9.00559 43.5009C13.9792 43.5009 18.0112 39.4577 18.0112 34.4702C18.0112 29.4826 13.9792 25.4395 9.00559 25.4395C4.03194 25.4395 0 29.4826 0 34.4702C0 39.4577 4.03194 43.5009 9.00559 43.5009Z" fill="#6C3205"/>
</g>
<path d="M63.3409 10.2273H68.2045V26.4545C68.2045 27.9545 67.8674 29.2576 67.1932 30.3636C66.5265 31.4697 65.5985 32.322 64.4091 32.9205C63.2197 33.5189 61.8371 33.8182 60.2614 33.8182C58.8598 33.8182 57.5871 33.572 56.4432 33.0795C55.3068 32.5795 54.4053 31.822 53.7386 30.8068C53.072 29.7841 52.7424 28.5 52.75 26.9545H57.6477C57.6629 27.5682 57.7879 28.0947 58.0227 28.5341C58.2652 28.9659 58.5947 29.2992 59.0114 29.5341C59.4356 29.7614 59.9356 29.875 60.5114 29.875C61.1174 29.875 61.6288 29.7462 62.0455 29.4886C62.4697 29.2235 62.7917 28.8371 63.0114 28.3295C63.2311 27.822 63.3409 27.197 63.3409 26.4545V10.2273ZM80.0682 33.8409C78.303 33.8409 76.7765 33.4659 75.4886 32.7159C74.2083 31.9583 73.2197 30.9053 72.5227 29.5568C71.8258 28.2008 71.4773 26.6288 71.4773 24.8409C71.4773 23.0379 71.8258 21.4621 72.5227 20.1136C73.2197 18.7576 74.2083 17.7045 75.4886 16.9545C76.7765 16.197 78.303 15.8182 80.0682 15.8182C81.8333 15.8182 83.3561 16.197 84.6364 16.9545C85.9242 17.7045 86.9167 18.7576 87.6136 20.1136C88.3106 21.4621 88.6591 23.0379 88.6591 24.8409C88.6591 26.6288 88.3106 28.2008 87.6136 29.5568C86.9167 30.9053 85.9242 31.9583 84.6364 32.7159C83.3561 33.4659 81.8333 33.8409 80.0682 33.8409ZM80.0909 30.0909C80.8939 30.0909 81.5644 29.8636 82.1023 29.4091C82.6402 28.947 83.0455 28.3182 83.3182 27.5227C83.5985 26.7273 83.7386 25.822 83.7386 24.8068C83.7386 23.7917 83.5985 22.8864 83.3182 22.0909C83.0455 21.2955 82.6402 20.6667 82.1023 20.2045C81.5644 19.7424 80.8939 19.5114 80.0909 19.5114C79.2803 19.5114 78.5985 19.7424 78.0455 20.2045C77.5 20.6667 77.0871 21.2955 76.8068 22.0909C76.5341 22.8864 76.3977 23.7917 76.3977 24.8068C76.3977 25.822 76.5341 26.7273 76.8068 27.5227C77.0871 28.3182 77.5 28.947 78.0455 29.4091C78.5985 29.8636 79.2803 30.0909 80.0909 30.0909ZM94.233 40.0455C93.6193 40.0455 93.0436 39.9962 92.5057 39.8977C91.9754 39.8068 91.536 39.6894 91.1875 39.5455L92.2784 35.9318C92.8466 36.1061 93.358 36.2008 93.8125 36.2159C94.2746 36.2311 94.6723 36.125 95.0057 35.8977C95.3466 35.6705 95.6231 35.2841 95.8352 34.7386L96.1193 34L89.858 16.0455H94.9489L98.5625 28.8636H98.7443L102.392 16.0455H107.517L100.733 35.3864C100.407 36.3258 99.964 37.1439 99.4034 37.8409C98.8504 38.5455 98.1496 39.0871 97.3011 39.4659C96.4527 39.8523 95.4299 40.0455 94.233 40.0455ZM138.026 18.375H133.048C132.957 17.7311 132.772 17.1591 132.491 16.6591C132.211 16.1515 131.851 15.7197 131.412 15.3636C130.973 15.0076 130.465 14.7348 129.889 14.5455C129.321 14.3561 128.704 14.2614 128.037 14.2614C126.832 14.2614 125.783 14.5606 124.889 15.1591C123.995 15.75 123.302 16.6136 122.81 17.75C122.317 18.8788 122.071 20.25 122.071 21.8636C122.071 23.5227 122.317 24.9167 122.81 26.0455C123.31 27.1742 124.007 28.0265 124.901 28.6023C125.795 29.178 126.829 29.4659 128.003 29.4659C128.662 29.4659 129.272 29.3788 129.832 29.2045C130.401 29.0303 130.904 28.7765 131.344 28.4432C131.783 28.1023 132.147 27.6894 132.435 27.2045C132.73 26.7197 132.935 26.1667 133.048 25.5455L138.026 25.5682C137.897 26.6364 137.575 27.6667 137.06 28.6591C136.552 29.6439 135.866 30.5265 135.003 31.3068C134.147 32.0795 133.124 32.6932 131.935 33.1477C130.753 33.5947 129.416 33.8182 127.923 33.8182C125.848 33.8182 123.991 33.3485 122.355 32.4091C120.726 31.4697 119.438 30.1098 118.491 28.3295C117.552 26.5492 117.082 24.3939 117.082 21.8636C117.082 19.3258 117.56 17.1667 118.514 15.3864C119.469 13.6061 120.764 12.25 122.401 11.3182C124.037 10.3788 125.878 9.90909 127.923 9.90909C129.272 9.90909 130.522 10.0985 131.673 10.4773C132.832 10.8561 133.859 11.4091 134.753 12.1364C135.647 12.8561 136.374 13.7386 136.935 14.7841C137.503 15.8295 137.866 17.0265 138.026 18.375ZM146.304 23.4091V33.5H141.463V10.2273H146.168V19.125H146.372C146.766 18.0947 147.402 17.2879 148.281 16.7045C149.16 16.1136 150.262 15.8182 151.588 15.8182C152.8 15.8182 153.857 16.0833 154.759 16.6136C155.668 17.1364 156.372 17.8902 156.872 18.875C157.38 19.8523 157.63 21.0227 157.622 22.3864V33.5H152.781V23.25C152.789 22.1742 152.516 21.3371 151.963 20.7386C151.418 20.1402 150.652 19.8409 149.668 19.8409C149.009 19.8409 148.425 19.9811 147.918 20.2614C147.418 20.5417 147.024 20.9508 146.736 21.4886C146.455 22.0189 146.312 22.6591 146.304 23.4091ZM172.625 26.0682V16.0455H177.466V33.5H172.818V30.3295H172.636C172.242 31.3523 171.587 32.1742 170.67 32.7955C169.761 33.4167 168.652 33.7273 167.341 33.7273C166.174 33.7273 165.148 33.4621 164.261 32.9318C163.375 32.4015 162.682 31.6477 162.182 30.6705C161.689 29.6932 161.439 28.5227 161.432 27.1591V16.0455H166.273V26.2955C166.28 27.3258 166.557 28.1402 167.102 28.7386C167.648 29.3371 168.379 29.6364 169.295 29.6364C169.879 29.6364 170.424 29.5038 170.932 29.2386C171.439 28.9659 171.848 28.5644 172.159 28.0341C172.477 27.5038 172.633 26.8485 172.625 26.0682Z" fill="white"/>
<defs>
<clipPath id="clip0_578_1428">
<rect width="36" height="43" fill="white" transform="translate(0 0.5)"/>
</clipPath>
</defs>
</svg>
