<svg width="179" height="68" viewBox="0 0 179 68" fill="none" xmlns="http://www.w3.org/2000/svg">
<g clip-path="url(#clip0_32_61)">
<path d="M34 68C52.7777 68 68 52.7777 68 34C68 15.2223 52.7777 0 34 0C15.2223 0 0 15.2223 0 34C0 52.7777 15.2223 68 34 68Z" fill="#DECCBE"/>
<path d="M48.4155 19.7725C46.0687 18.8106 41.5644 14.9924 33.7953 14.8199C29.2919 14.663 22.7975 18.9003 20.1663 19.7725C18.7424 20.2442 17.4502 18.5563 17.4502 17.0564C17.4502 15.5566 18.761 14.9924 19.9363 14.1669C19.9363 14.1669 26.8604 9.34486 33.6852 9.38774C42.3801 9.44231 48.4895 14.1572 48.4895 14.1572C49.9396 15.2029 51.305 15.4874 51.1218 17.3215C51.1218 17.3215 50.3148 20.5502 48.4155 19.7715V19.7725Z" fill="white"/>
<path d="M38.0969 21.8717C38.0969 20.1389 36.6925 18.7346 34.9598 18.7346C33.227 18.7346 31.8227 20.1389 31.8227 21.8717C31.8227 21.8717 36.1244 55.3776 28.594 55.7908C23.2467 54.2228 23.6589 48.4349 20.6875 48.9846C18.7355 49.3461 18.7433 51.3322 18.7433 51.3322C18.64 53.5542 19.3583 54.1019 20.174 55.3678C20.174 55.3678 24.0722 60.9354 28.9634 61.0027C32.8021 61.0553 34.4374 59.5516 35.5767 58.159C37.1038 56.2917 37.8103 53.717 38.2138 50.3674C38.5052 47.9496 38.0969 21.8717 38.0969 21.8717Z" fill="white"/>
</g>
<path d="M91.9453 24.8203H95.4023V35.6953C95.4023 37.1172 95.2773 38.2109 95.0273 38.9766C94.6914 39.9766 94.082 40.7812 93.1992 41.3906C92.3164 41.9922 91.1523 42.293 89.707 42.293C88.0117 42.293 86.707 41.8203 85.793 40.875C84.8789 39.9219 84.418 38.5273 84.4102 36.6914L87.6797 36.3164C87.7188 37.3008 87.8633 37.9961 88.1133 38.4023C88.4883 39.0195 89.0586 39.3281 89.8242 39.3281C90.5977 39.3281 91.1445 39.1094 91.4648 38.6719C91.7852 38.2266 91.9453 37.3086 91.9453 35.918V24.8203ZM98.3203 35.6016C98.3203 34.5078 98.5898 33.4492 99.1289 32.4258C99.668 31.4023 100.43 30.6211 101.414 30.082C102.406 29.543 103.512 29.2734 104.73 29.2734C106.613 29.2734 108.156 29.8867 109.359 31.1133C110.562 32.332 111.164 33.875 111.164 35.7422C111.164 37.625 110.555 39.1875 109.336 40.4297C108.125 41.6641 106.598 42.2812 104.754 42.2812C103.613 42.2812 102.523 42.0234 101.484 41.5078C100.453 40.9922 99.668 40.2383 99.1289 39.2461C98.5898 38.2461 98.3203 37.0312 98.3203 35.6016ZM101.695 35.7773C101.695 37.0117 101.988 37.957 102.574 38.6133C103.16 39.2695 103.883 39.5977 104.742 39.5977C105.602 39.5977 106.32 39.2695 106.898 38.6133C107.484 37.957 107.777 37.0039 107.777 35.7539C107.777 34.5352 107.484 33.5977 106.898 32.9414C106.32 32.2852 105.602 31.957 104.742 31.957C103.883 31.957 103.16 32.2852 102.574 32.9414C101.988 33.5977 101.695 34.543 101.695 35.7773ZM112.195 29.5547H115.699L118.676 38.3906L121.582 29.5547H124.992L120.598 41.5312L119.812 43.6992C119.523 44.4258 119.246 44.9805 118.98 45.3633C118.723 45.7461 118.422 46.0547 118.078 46.2891C117.742 46.5312 117.324 46.7188 116.824 46.8516C116.332 46.9844 115.773 47.0508 115.148 47.0508C114.516 47.0508 113.895 46.9844 113.285 46.8516L112.992 44.2734C113.508 44.375 113.973 44.4258 114.387 44.4258C115.152 44.4258 115.719 44.1992 116.086 43.7461C116.453 43.3008 116.734 42.7305 116.93 42.0352L112.195 29.5547ZM144.809 35.6836L148.172 36.75C147.656 38.625 146.797 40.0195 145.594 40.9336C144.398 41.8398 142.879 42.293 141.035 42.293C138.754 42.293 136.879 41.5156 135.41 39.9609C133.941 38.3984 133.207 36.2656 133.207 33.5625C133.207 30.7031 133.945 28.4844 135.422 26.9062C136.898 25.3203 138.84 24.5273 141.246 24.5273C143.348 24.5273 145.055 25.1484 146.367 26.3906C147.148 27.125 147.734 28.1797 148.125 29.5547L144.691 30.375C144.488 29.4844 144.062 28.7812 143.414 28.2656C142.773 27.75 141.992 27.4922 141.07 27.4922C139.797 27.4922 138.762 27.9492 137.965 28.8633C137.176 29.7773 136.781 31.2578 136.781 33.3047C136.781 35.4766 137.172 37.0234 137.953 37.9453C138.734 38.8672 139.75 39.3281 141 39.3281C141.922 39.3281 142.715 39.0352 143.379 38.4492C144.043 37.8633 144.52 36.9414 144.809 35.6836ZM154.418 24.8203V31.1367C155.48 29.8945 156.75 29.2734 158.227 29.2734C158.984 29.2734 159.668 29.4141 160.277 29.6953C160.887 29.9766 161.344 30.3359 161.648 30.7734C161.961 31.2109 162.172 31.6953 162.281 32.2266C162.398 32.7578 162.457 33.582 162.457 34.6992V42H159.164V35.4258C159.164 34.1211 159.102 33.293 158.977 32.9414C158.852 32.5898 158.629 32.3125 158.309 32.1094C157.996 31.8984 157.602 31.793 157.125 31.793C156.578 31.793 156.09 31.9258 155.66 32.1914C155.23 32.457 154.914 32.8594 154.711 33.3984C154.516 33.9297 154.418 34.7188 154.418 35.7656V42H151.125V24.8203H154.418ZM174 42V40.1367C173.547 40.8008 172.949 41.3242 172.207 41.707C171.473 42.0898 170.695 42.2812 169.875 42.2812C169.039 42.2812 168.289 42.0977 167.625 41.7305C166.961 41.3633 166.48 40.8477 166.184 40.1836C165.887 39.5195 165.738 38.6016 165.738 37.4297V29.5547H169.031V35.2734C169.031 37.0234 169.09 38.0977 169.207 38.4961C169.332 38.8867 169.555 39.1992 169.875 39.4336C170.195 39.6602 170.602 39.7734 171.094 39.7734C171.656 39.7734 172.16 39.6211 172.605 39.3164C173.051 39.0039 173.355 38.6211 173.52 38.168C173.684 37.707 173.766 36.5859 173.766 34.8047V29.5547H177.059V42H174Z" fill="#6C3205"/>
<defs>
<clipPath id="clip0_32_61">
<rect width="68" height="68" fill="white"/>
</clipPath>
</defs>
</svg>
