<svg width="32" height="32" viewBox="0 0 32 32" fill="none" xmlns="http://www.w3.org/2000/svg">
<path fill-rule="evenodd" clip-rule="evenodd" d="M28.7998 12.8C28.7998 12.3757 28.6312 11.9687 28.3312 11.6687C28.0311 11.3686 27.6242 11.2 27.1998 11.2H10.707C10.2827 11.2 9.87569 11.3686 9.57563 11.6687C9.27557 11.9687 9.10701 12.3757 9.10701 12.8C9.10701 13.2244 9.27557 13.6314 9.57563 13.9314C9.87569 14.2315 10.2827 14.4 10.707 14.4H27.1998C27.6242 14.4 28.0311 14.2315 28.3312 13.9314C28.6312 13.6314 28.7998 13.2244 28.7998 12.8ZM28.7998 6.40005C28.7998 5.9757 28.6312 5.56874 28.3312 5.26868C28.0311 4.96862 27.6242 4.80005 27.1998 4.80005H4.7998C4.37546 4.80005 3.96849 4.96862 3.66843 5.26868C3.36837 5.56874 3.1998 5.9757 3.1998 6.40005C3.1998 6.8244 3.36837 7.23136 3.66843 7.53142C3.96849 7.83148 4.37546 8.00005 4.7998 8.00005H27.1998C27.6242 8.00005 28.0311 7.83148 28.3312 7.53142C28.6312 7.23136 28.7998 6.8244 28.7998 6.40005ZM28.7998 19.2C28.7998 18.7757 28.6312 18.3687 28.3312 18.0687C28.0311 17.7686 27.6242 17.6 27.1998 17.6H4.7998C4.37546 17.6 3.96849 17.7686 3.66843 18.0687C3.36837 18.3687 3.1998 18.7757 3.1998 19.2C3.1998 19.6244 3.36837 20.0314 3.66843 20.3314C3.96849 20.6315 4.37546 20.8 4.7998 20.8H27.1998C27.6242 20.8 28.0311 20.6315 28.3312 20.3314C28.6312 20.0314 28.7998 19.6244 28.7998 19.2ZM28.7998 25.6C28.7998 25.1757 28.6312 24.7687 28.3312 24.4687C28.0311 24.1686 27.6242 24 27.1998 24H10.707C10.2827 24 9.87569 24.1686 9.57563 24.4687C9.27557 24.7687 9.10701 25.1757 9.10701 25.6C9.10701 26.0244 9.27557 26.4314 9.57563 26.7314C9.87569 27.0315 10.2827 27.2 10.707 27.2H27.1998C27.6242 27.2 28.0311 27.0315 28.3312 26.7314C28.6312 26.4314 28.7998 26.0244 28.7998 25.6Z" fill="#6C3205"/>
</svg>
