<svg width="48" height="48" viewBox="0 0 48 48" fill="none" xmlns="http://www.w3.org/2000/svg">
<path fill-rule="evenodd" clip-rule="evenodd" d="M43.2 19.2002C43.2 18.5637 42.9471 17.9532 42.4971 17.5031C42.047 17.0531 41.4365 16.8002 40.8 16.8002H16.0608C15.4243 16.8002 14.8138 17.0531 14.3637 17.5031C13.9137 17.9532 13.6608 18.5637 13.6608 19.2002C13.6608 19.8367 13.9137 20.4472 14.3637 20.8973C14.8138 21.3473 15.4243 21.6002 16.0608 21.6002H40.8C41.4365 21.6002 42.047 21.3473 42.4971 20.8973C42.9471 20.4472 43.2 19.8367 43.2 19.2002ZM43.2 9.6002C43.2 8.96368 42.9471 8.35323 42.4971 7.90314C42.047 7.45305 41.4365 7.2002 40.8 7.2002H7.2C6.56348 7.2002 5.95302 7.45305 5.50294 7.90314C5.05285 8.35323 4.8 8.96368 4.8 9.6002C4.8 10.2367 5.05285 10.8472 5.50294 11.2973C5.95302 11.7473 6.56348 12.0002 7.2 12.0002H40.8C41.4365 12.0002 42.047 11.7473 42.4971 11.2973C42.9471 10.8472 43.2 10.2367 43.2 9.6002ZM43.2 28.8002C43.2 28.1637 42.9471 27.5532 42.4971 27.1031C42.047 26.6531 41.4365 26.4002 40.8 26.4002H7.2C6.56348 26.4002 5.95302 26.6531 5.50294 27.1031C5.05285 27.5532 4.8 28.1637 4.8 28.8002C4.8 29.4367 5.05285 30.0472 5.50294 30.4972C5.95302 30.9473 6.56348 31.2002 7.2 31.2002H40.8C41.4365 31.2002 42.047 30.9473 42.4971 30.4972C42.9471 30.0472 43.2 29.4367 43.2 28.8002ZM43.2 38.4002C43.2 37.7637 42.9471 37.1532 42.4971 36.7031C42.047 36.2531 41.4365 36.0002 40.8 36.0002H16.0608C15.4243 36.0002 14.8138 36.2531 14.3637 36.7031C13.9137 37.1532 13.6608 37.7637 13.6608 38.4002C13.6608 39.0367 13.9137 39.6472 14.3637 40.0973C14.8138 40.5473 15.4243 40.8002 16.0608 40.8002H40.8C41.4365 40.8002 42.047 40.5473 42.4971 40.0973C42.9471 39.6472 43.2 39.0367 43.2 38.4002Z" fill="white"/>
</svg>
