<svg width="56" height="56" viewBox="0 0 56 56" fill="none" xmlns="http://www.w3.org/2000/svg">
<g clip-path="url(#clip0_590_1609)">
<path d="M42.875 0H13.125C5.87626 0 0 5.87626 0 13.125V42.875C0 50.1237 5.87626 56 13.125 56H42.875C50.1237 56 56 50.1237 56 42.875V13.125C56 5.87626 50.1237 0 42.875 0Z" fill="#001E36"/>
<path d="M12.6 38.9466V14.9366C12.6 14.7732 12.67 14.68 12.8334 14.68C13.23 14.68 13.6034 14.68 14.14 14.6566C14.7 14.6332 15.2834 14.6332 15.9134 14.61C16.5434 14.5866 17.22 14.5866 17.9434 14.5632C18.6666 14.54 19.3666 14.54 20.0666 14.54C21.98 14.54 23.5666 14.7732 24.8734 15.2632C26.0447 15.6611 27.1127 16.3147 28 17.1766C28.7517 17.9311 29.3326 18.8382 29.7034 19.8366C30.0534 20.8166 30.24 21.82 30.24 22.87C30.24 24.8767 29.7733 26.5334 28.84 27.84C27.9066 29.1466 26.6 30.1266 25.0834 30.6866C23.4966 31.27 21.7466 31.48 19.8334 31.48C19.2734 31.48 18.9 31.48 18.6666 31.4566C18.4332 31.4332 18.1066 31.4332 17.6634 31.4332V38.9232C17.6866 39.0866 17.57 39.2266 17.4066 39.25H12.88C12.6934 39.25 12.6 39.1566 12.6 38.9466ZM17.6866 19.1832V27.0232C18.0134 27.0466 18.3166 27.07 18.5966 27.07H19.8334C20.7434 27.07 21.6534 26.93 22.5166 26.65C23.2634 26.44 23.9166 25.9966 24.43 25.4132C24.92 24.83 25.1534 24.0366 25.1534 23.01C25.1753 22.2808 24.9891 21.5605 24.6166 20.9332C24.22 20.3266 23.66 19.86 22.9834 19.6032C22.12 19.2532 21.1866 19.1132 20.23 19.1366C19.6234 19.1366 19.0866 19.1366 18.6434 19.16C18.1766 19.1366 17.85 19.16 17.6866 19.1832ZM44.8 25.6C44.1 25.2266 43.3534 24.97 42.56 24.8066C41.6966 24.62 40.8334 24.5032 39.9466 24.5032C39.48 24.48 38.99 24.55 38.5466 24.6666C38.2434 24.7366 37.9866 24.9 37.8234 25.1332C37.7066 25.32 37.6366 25.5532 37.6366 25.7632C37.6366 25.9732 37.73 26.1832 37.87 26.37C38.08 26.6266 38.36 26.8366 38.6634 27C39.2044 27.2801 39.7571 27.537 40.32 27.77C41.58 28.19 42.7934 28.7732 43.9134 29.4732C44.6834 29.9632 45.3134 30.6166 45.7566 31.41C46.13 32.1566 46.3166 32.9732 46.2934 33.8132C46.3166 34.91 45.99 36.0066 45.3834 36.9166C44.7325 37.8481 43.8244 38.5697 42.77 38.9932C41.6266 39.4832 40.2266 39.74 38.5466 39.74C37.4734 39.74 36.4234 39.6466 35.3734 39.4366C34.5504 39.2945 33.7501 39.0435 32.9934 38.69C32.83 38.5966 32.7134 38.4332 32.7366 38.2466V34.1866C32.7366 34.1166 32.76 34.0232 32.83 33.9766C32.9 33.93 32.97 33.9532 33.04 34C33.95 34.5366 34.9066 34.91 35.9334 35.1432C36.82 35.3766 37.7534 35.4932 38.6866 35.4932C39.5734 35.4932 40.2034 35.3766 40.6234 35.1666C40.9966 35.0032 41.2534 34.6066 41.2534 34.1866C41.2534 33.86 41.0666 33.5566 40.6934 33.2532C40.32 32.95 39.55 32.6 38.4066 32.1566C37.2338 31.7432 36.1199 31.1785 35.0934 30.4766C34.3621 29.9556 33.7563 29.278 33.32 28.4932C32.9466 27.7466 32.76 26.93 32.7834 26.1132C32.7834 25.11 33.0634 24.1532 33.5766 23.29C34.16 22.3566 35.0234 21.61 36.0266 21.1432C37.1234 20.5832 38.5 20.3266 40.1566 20.3266C41.1134 20.3266 42.0934 20.3966 43.05 20.5366C43.75 20.63 44.4266 20.8166 45.0566 21.0732C45.15 21.0966 45.2434 21.19 45.29 21.2832C45.3134 21.3766 45.3366 21.47 45.3366 21.5632V25.3666C45.3366 25.46 45.29 25.5532 45.22 25.6C45.01 25.6466 44.8934 25.6466 44.8 25.6Z" fill="#31A8FF"/>
</g>
<defs>
<clipPath id="clip0_590_1609">
<rect width="56" height="56" fill="white"/>
</clipPath>
</defs>
</svg>
