<svg width="56" height="56" viewBox="0 0 56 56" fill="none" xmlns="http://www.w3.org/2000/svg">
<g clip-path="url(#clip0_590_1621)">
<path d="M42.875 0H13.125C5.87626 0 0 5.87626 0 13.125V42.875C0 50.1237 5.87626 56 13.125 56H42.875C50.1237 56 56 50.1237 56 42.875V13.125C56 5.87626 50.1237 0 42.875 0Z" fill="#00005B"/>
<path d="M11.8125 39.9612V15.9278C11.8125 15.7647 11.8825 15.6712 12.0459 15.6712C12.4425 15.6712 12.8159 15.6712 13.3525 15.6478C13.9125 15.6247 14.4959 15.6247 15.1259 15.6012C15.7559 15.5778 16.4325 15.5778 17.1559 15.5547C17.8791 15.5313 18.5791 15.5312 19.2791 15.5312C21.1925 15.5312 22.7791 15.7647 24.0859 16.2547C25.2572 16.6525 26.3252 17.306 27.2125 18.1678C27.9642 18.9223 28.5451 19.8294 28.9159 20.8278C29.2659 21.8078 29.4525 22.8112 29.4525 23.8612C29.4525 25.8679 28.9858 27.5246 28.0525 28.8312C27.1191 30.1378 25.8125 31.1178 24.2959 31.6778C22.7091 32.2612 20.9591 32.4712 19.0459 32.4712C18.4859 32.4712 18.1125 32.4712 17.8791 32.4478C17.6459 32.4247 17.3191 32.4247 16.8759 32.4247V39.9147C16.8991 40.0778 16.7825 40.2178 16.6191 40.2412H12.0925C11.9059 40.2412 11.8125 40.1478 11.8125 39.9378V39.9612ZM16.8991 20.1978V28.0378C17.2259 28.0613 17.5291 28.0847 17.8091 28.0847H19.0459C19.9559 28.0847 20.8659 27.9447 21.7291 27.6647C22.4759 27.4547 23.1291 27.0113 23.6425 26.4278C24.1325 25.8447 24.3659 25.0513 24.3659 24.0247C24.3878 23.2955 24.2016 22.5751 23.8291 21.9478C23.4325 21.3412 22.8725 20.8747 22.1959 20.6178C21.3325 20.2678 20.3991 20.1278 19.4425 20.1513C18.8359 20.1513 18.2991 20.1512 17.8559 20.1747C17.3891 20.1512 17.0625 20.1747 16.8991 20.1978ZM32.8125 21.5747H36.8959C37.1293 21.5747 37.3159 21.7378 37.3859 21.9478C37.4559 22.1347 37.5025 22.3212 37.5259 22.5312C37.5725 22.7647 37.6193 23.0212 37.6425 23.2547C37.6659 23.5112 37.6893 23.7913 37.6893 24.0947C38.3899 23.2767 39.2365 22.5962 40.1859 22.0878C41.2593 21.4812 42.4959 21.1778 43.7325 21.1778C43.8959 21.1547 44.0359 21.2712 44.0593 21.4347V26.0778C44.0593 26.2647 43.9425 26.3347 43.6859 26.3347C42.8459 26.3112 41.9825 26.3812 41.1659 26.5678C40.4892 26.7078 39.8359 26.9178 39.2059 27.1978C38.7625 27.4078 38.3425 27.6878 38.0159 28.0612V39.9612C38.0159 40.1947 37.9225 40.2878 37.7125 40.2878H33.1159C32.9293 40.3112 32.7659 40.1947 32.7425 40.0078V26.9878C32.7425 26.4278 32.7425 25.8447 32.7193 25.2378C32.6959 24.6312 32.6959 24.0247 32.6725 23.4178C32.6725 22.8812 32.6259 22.3678 32.5793 21.8313C32.5559 21.7147 32.6259 21.5978 32.7425 21.5747C32.7425 21.5512 32.7893 21.5512 32.8125 21.5747Z" fill="#9999FF"/>
</g>
<defs>
<clipPath id="clip0_590_1621">
<rect width="56" height="56" fill="white"/>
</clipPath>
</defs>
</svg>
