<svg width="58" height="56" viewBox="0 0 58 56" fill="none" xmlns="http://www.w3.org/2000/svg">
<g clip-path="url(#clip0_590_1625)">
<path d="M48.3711 0H9.62891C4.31101 0 0 4.26225 0 9.52V46.3904C0 51.6482 4.31101 55.9104 9.62891 55.9104H48.3711C53.689 55.9104 58 51.6482 58 46.3904V9.52C58 4.26225 53.689 0 48.3711 0Z" fill="#470137"/>
<path d="M30.4903 14.7031L23.2533 26.513L30.996 39.0537C31.0459 39.1415 31.0597 39.2445 31.035 39.3422C31.023 39.3839 30.9972 39.3942 30.9575 39.3957L30.9136 39.3951L30.8601 39.3937C30.8311 39.3937 30.7987 39.3951 30.7627 39.4009H25.1802L25.0705 39.3991C24.7696 39.3912 24.5528 39.3487 24.4207 39.1305C23.9042 38.1356 23.3854 37.1419 22.8642 36.1493C22.3981 35.264 21.9193 34.3853 21.4278 33.5135L21.2108 33.1295C20.623 32.0967 20.0459 31.0581 19.4794 30.0137H19.4404C18.9173 31.0472 18.379 32.073 17.8257 33.091C17.2676 34.1169 16.7164 35.1364 16.172 36.1493C15.6273 37.1628 15.0696 38.1695 14.4991 39.169C14.4073 39.3729 14.2549 39.4154 14.0426 39.4224L13.9542 39.4237H8.62389L8.60078 39.4244L8.52465 39.4311C8.48228 39.4336 8.45691 39.4246 8.44875 39.3615C8.43424 39.2677 8.45504 39.1719 8.50721 39.0922L16.0164 26.8976L8.7016 14.665C8.62396 14.5629 8.61097 14.4795 8.66263 14.415C8.69134 14.3822 8.72739 14.3563 8.76793 14.3396C8.80847 14.3229 8.85239 14.3157 8.89621 14.3187H14.3822C14.5018 14.3123 14.6214 14.332 14.7325 14.3765C14.8254 14.4287 14.9053 14.501 14.9658 14.5882C15.4327 15.6141 15.9515 16.6399 16.5223 17.6655C17.0886 18.6845 17.6658 19.6975 18.2537 20.7045C18.8326 21.6958 19.3713 22.7097 19.8684 23.7435H19.9074C20.4168 22.7099 20.9421 21.684 21.4831 20.6662C22.0145 19.666 22.5591 18.6593 23.1171 17.6462C23.6678 16.6463 24.2061 15.6397 24.7318 14.6267C24.7617 14.5317 24.8152 14.4457 24.8874 14.3765C24.9835 14.3284 25.0915 14.3083 25.1987 14.3187H30.2957C30.3426 14.3071 30.392 14.311 30.4365 14.3295C30.4809 14.3481 30.5181 14.3805 30.5424 14.4218C30.5667 14.4631 30.5767 14.511 30.571 14.5584C30.5654 14.6059 30.5443 14.6502 30.511 14.6847L30.4903 14.7031ZM41.9249 39.897L41.6567 39.9C39.8658 39.927 38.0913 39.5591 36.4623 38.823C34.9447 38.1285 33.6762 36.995 32.8244 35.5723C31.9654 34.1618 31.5247 32.4045 31.5024 30.3004L31.5015 30.1291C31.4869 28.3635 31.9433 26.6253 32.8246 25.0897C33.7067 23.5699 34.9926 22.3176 36.543 21.4686L36.6764 21.3969C38.362 20.4735 40.3982 20.0119 42.785 20.0119L42.8892 20.013L43.0084 20.0168L43.142 20.0226L43.2907 20.0311L43.5403 20.0486L43.8231 20.071L44.0299 20.0889V12.5106C44.0299 12.3312 44.1077 12.2415 44.2633 12.2413H49.1659C49.1976 12.2368 49.2299 12.2397 49.2603 12.2497C49.2907 12.2597 49.3183 12.2766 49.3409 12.299C49.3636 12.3214 49.3807 12.3487 49.3908 12.3787C49.4009 12.4087 49.4038 12.4407 49.3992 12.472V35.2069C49.3992 35.5888 49.4142 35.9997 49.4441 36.4398L49.5166 37.4377L49.5551 38.015C49.5599 38.0949 49.5402 38.1744 49.4985 38.2431C49.4568 38.3118 49.3951 38.3664 49.3215 38.3998C48.0568 38.9212 46.7394 39.308 45.3918 39.5536C44.2478 39.7625 43.0882 39.8774 41.9249 39.897ZM44.0299 35.1299V24.6281C43.8197 24.5717 43.605 24.5332 43.3881 24.5127C43.123 24.4862 42.8568 24.4734 42.5904 24.4742C41.6462 24.4648 40.7131 24.6757 39.8669 25.0897C39.0427 25.4951 38.3389 26.1048 37.8242 26.8593C37.3105 27.6021 37.0449 28.572 37.0273 29.7691L37.0264 29.8983C37.0076 30.7368 37.1461 31.5715 37.4349 32.3601C37.6702 32.9956 38.042 33.5731 38.5247 34.0529C38.9866 34.4942 39.546 34.8234 40.1587 35.0145C40.8058 35.2216 41.4822 35.3256 42.1624 35.3225C42.5253 35.3225 42.8625 35.3096 43.174 35.2838C43.4224 35.2653 43.6687 35.2248 43.9099 35.1628L44.0299 35.1299Z" fill="#FF61F6"/>
</g>
<defs>
<clipPath id="clip0_590_1625">
<rect width="58" height="56" fill="white"/>
</clipPath>
</defs>
</svg>
